HIERARCHY
ROOT mixamorig:Hips
{
	OFFSET 0.000000 201.639420 0.000000
	CHANNELS 6 Xposition Yposition Zposition Xrotation Yrotation Zrotation
	JOINT mixamorig:Spine
	{
		OFFSET 0.006200 19.524994 -2.481800
		CHANNELS 3 Xrotation Yrotation Zrotation
		JOINT mixamorig:Spine1
		{
			OFFSET -0.000900 22.835007 -2.825400
			CHANNELS 3 Xrotation Yrotation Zrotation
			JOINT mixamorig:Spine2
			{
				OFFSET -0.020600 26.552490 -3.193300
				CHANNELS 3 Xrotation Yrotation Zrotation
				JOINT mixamorig:Neck
				{
					OFFSET -0.060000 30.701813 1.352200
					CHANNELS 3 Xrotation Yrotation Zrotation
					JOINT mixamorig:Head
					{
						OFFSET -0.087200 22.547607 3.670900
						CHANNELS 3 Xrotation Yrotation Zrotation
						JOINT mixamorig:HeadTop_End
						{
							OFFSET -0.830600 40.355194 7.893500
							CHANNELS 3 Xrotation Yrotation Zrotation
							End Site
							{
								OFFSET 0.000000 30.592346 0.000000
							}
						}
						JOINT mixamorig:RightEye
						{
							OFFSET -6.302100 18.118591 16.197100
							CHANNELS 3 Xrotation Yrotation Zrotation
							End Site
							{
								OFFSET 0.000000 30.592346 0.000000
							}
						}
						JOINT mixamorig:LeftEye
						{
							OFFSET 6.741500 18.382690 16.401899
							CHANNELS 3 Xrotation Yrotation Zrotation
							End Site
							{
								OFFSET 0.000000 30.592346 0.000000
							}
						}
					}
				}
				JOINT mixamorig:LeftShoulder
				{
					OFFSET 11.924900 18.230499 1.425400
					CHANNELS 3 Xrotation Yrotation Zrotation
					JOINT mixamorig:LeftArm
					{
						OFFSET 25.435989 -0.697632 -5.229300
						CHANNELS 3 Xrotation Yrotation Zrotation
						JOINT mixamorig:LeftForeArm
						{
							OFFSET 54.684776 0.000000 0.000000
							CHANNELS 3 Xrotation Yrotation Zrotation
							JOINT mixamorig:LeftHand
							{
								OFFSET 55.098175 0.000000 0.000000
								CHANNELS 3 Xrotation Yrotation Zrotation
								JOINT mixamorig:LeftHandMiddle1
								{
									OFFSET 23.369751 0.000000 0.000000
									CHANNELS 3 Xrotation Yrotation Zrotation
									JOINT mixamorig:LeftHandMiddle2
									{
										OFFSET 6.378677 0.000000 0.000000
										CHANNELS 3 Xrotation Yrotation Zrotation
										JOINT mixamorig:LeftHandMiddle3
										{
											OFFSET 6.148331 0.000000 0.000000
											CHANNELS 3 Xrotation Yrotation Zrotation
											JOINT mixamorig:LeftHandMiddle4
											{
												OFFSET 6.582504 0.000000 0.000000
												CHANNELS 3 Xrotation Yrotation Zrotation
												End Site
												{
													OFFSET -1.168900 6.395691 1.028606
												}
											}
										}
									}
								}
								JOINT mixamorig:LeftHandThumb1
								{
									OFFSET 7.235672 -3.848206 5.434273
									CHANNELS 3 Xrotation Yrotation Zrotation
									JOINT mixamorig:LeftHandThumb2
									{
										OFFSET 6.568451 -3.792297 3.792300
										CHANNELS 3 Xrotation Yrotation Zrotation
										JOINT mixamorig:LeftHandThumb3
										{
											OFFSET 6.063080 -3.500519 3.500518
											CHANNELS 3 Xrotation Yrotation Zrotation
											JOINT mixamorig:LeftHandThumb4
											{
												OFFSET 4.793182 -2.767334 2.767349
												CHANNELS 3 Xrotation Yrotation Zrotation
												End Site
												{
													OFFSET 0.101639 6.054260 1.275483
												}
											}
										}
									}
								}
								JOINT mixamorig:LeftHandIndex1
								{
									OFFSET 23.101074 -0.309540 4.992809
									CHANNELS 3 Xrotation Yrotation Zrotation
									JOINT mixamorig:LeftHandIndex2
									{
										OFFSET 6.226883 0.000000 0.000000
										CHANNELS 3 Xrotation Yrotation Zrotation
										JOINT mixamorig:LeftHandIndex3
										{
											OFFSET 6.094330 0.000000 0.000000
											CHANNELS 3 Xrotation Yrotation Zrotation
											JOINT mixamorig:LeftHandIndex4
											{
												OFFSET 5.482605 0.000000 0.000000
												CHANNELS 3 Xrotation Yrotation Zrotation
												End Site
												{
													OFFSET -1.427902 5.233032 0.797164
												}
											}
										}
									}
								}
								JOINT mixamorig:LeftHandRing1
								{
									OFFSET 22.299240 0.021149 -3.964172
									CHANNELS 3 Xrotation Yrotation Zrotation
									JOINT mixamorig:LeftHandRing2
									{
										OFFSET 6.321869 0.000000 0.000000
										CHANNELS 3 Xrotation Yrotation Zrotation
										JOINT mixamorig:LeftHandRing3
										{
											OFFSET 5.899796 0.000000 0.000000
											CHANNELS 3 Xrotation Yrotation Zrotation
											JOINT mixamorig:LeftHandRing4
											{
												OFFSET 6.517899 0.000000 0.000000
												CHANNELS 3 Xrotation Yrotation Zrotation
												End Site
												{
													OFFSET -1.637299 6.232208 0.980890
												}
											}
										}
									}
								}
								JOINT mixamorig:LeftHandPinky1
								{
									OFFSET 20.463791 -0.302338 -8.562233
									CHANNELS 3 Xrotation Yrotation Zrotation
									JOINT mixamorig:LeftHandPinky2
									{
										OFFSET 6.908646 0.000000 0.000000
										CHANNELS 3 Xrotation Yrotation Zrotation
										JOINT mixamorig:LeftHandPinky3
										{
											OFFSET 4.622849 0.000000 0.000000
											CHANNELS 3 Xrotation Yrotation Zrotation
											JOINT mixamorig:LeftHandPinky4
											{
												OFFSET 5.216080 0.000000 0.000000
												CHANNELS 3 Xrotation Yrotation Zrotation
												End Site
												{
													OFFSET -0.606308 5.116241 0.814926
												}
											}
										}
									}
								}
							}
						}
					}
				}
				JOINT mixamorig:RightShoulder
				{
					OFFSET -12.001300 18.284088 1.348900
					CHANNELS 3 Xrotation Yrotation Zrotation
					JOINT mixamorig:RightArm
					{
						OFFSET -25.308500 -0.751312 -5.164599
						CHANNELS 3 Xrotation Yrotation Zrotation
						JOINT mixamorig:RightForeArm
						{
							OFFSET -54.684429 0.000000 0.000000
							CHANNELS 3 Xrotation Yrotation Zrotation
							JOINT mixamorig:RightHand
							{
								OFFSET -55.150291 0.000000 0.000000
								CHANNELS 3 Xrotation Yrotation Zrotation
								JOINT mixamorig:RightHandMiddle1
								{
									OFFSET -23.317566 0.000000 0.000000
									CHANNELS 3 Xrotation Yrotation Zrotation
									JOINT mixamorig:RightHandMiddle2
									{
										OFFSET -6.378403 0.000000 0.000000
										CHANNELS 3 Xrotation Yrotation Zrotation
										JOINT mixamorig:RightHandMiddle3
										{
											OFFSET -6.148193 0.000000 0.000000
											CHANNELS 3 Xrotation Yrotation Zrotation
											JOINT mixamorig:RightHandMiddle4
											{
												OFFSET -6.583389 0.000000 0.000000
												CHANNELS 3 Xrotation Yrotation Zrotation
												End Site
												{
													OFFSET 1.171692 6.395905 1.029786
												}
											}
										}
									}
								}
								JOINT mixamorig:RightHandThumb1
								{
									OFFSET -7.190521 -3.860474 5.435846
									CHANNELS 3 Xrotation Yrotation Zrotation
									JOINT mixamorig:RightHandThumb2
									{
										OFFSET -6.567429 -3.791718 3.791708
										CHANNELS 3 Xrotation Yrotation Zrotation
										JOINT mixamorig:RightHandThumb3
										{
											OFFSET -6.062469 -3.500153 3.500166
											CHANNELS 3 Xrotation Yrotation Zrotation
											JOINT mixamorig:RightHandThumb4
											{
												OFFSET -4.792618 -2.767029 2.767022
												CHANNELS 3 Xrotation Yrotation Zrotation
												End Site
												{
													OFFSET -0.100327 6.053253 1.276754
												}
											}
										}
									}
								}
								JOINT mixamorig:RightHandIndex1
								{
									OFFSET -23.048981 -0.310791 4.992554
									CHANNELS 3 Xrotation Yrotation Zrotation
									JOINT mixamorig:RightHandIndex2
									{
										OFFSET -6.227539 0.000000 0.000000
										CHANNELS 3 Xrotation Yrotation Zrotation
										JOINT mixamorig:RightHandIndex3
										{
											OFFSET -6.095047 0.000000 0.000000
											CHANNELS 3 Xrotation Yrotation Zrotation
											JOINT mixamorig:RightHandIndex4
											{
												OFFSET -5.484772 0.000000 0.000000
												CHANNELS 3 Xrotation Yrotation Zrotation
												End Site
												{
													OFFSET 1.420593 5.237305 0.797056
												}
											}
										}
									}
								}
								JOINT mixamorig:RightHandRing1
								{
									OFFSET -22.246323 0.020569 -3.963762
									CHANNELS 3 Xrotation Yrotation Zrotation
									JOINT mixamorig:RightHandRing2
									{
										OFFSET -6.322128 0.000000 0.000000
										CHANNELS 3 Xrotation Yrotation Zrotation
										JOINT mixamorig:RightHandRing3
										{
											OFFSET -5.900024 0.000000 0.000000
											CHANNELS 3 Xrotation Yrotation Zrotation
											JOINT mixamorig:RightHandRing4
											{
												OFFSET -6.518356 0.000000 0.000000
												CHANNELS 3 Xrotation Yrotation Zrotation
												End Site
												{
													OFFSET 1.636398 6.232697 0.982186
												}
											}
										}
									}
								}
								JOINT mixamorig:RightHandPinky1
								{
									OFFSET -20.411011 -0.303314 -8.561701
									CHANNELS 3 Xrotation Yrotation Zrotation
									JOINT mixamorig:RightHandPinky2
									{
										OFFSET -6.907349 0.000000 0.000000
										CHANNELS 3 Xrotation Yrotation Zrotation
										JOINT mixamorig:RightHandPinky3
										{
											OFFSET -4.623840 0.000000 0.000000
											CHANNELS 3 Xrotation Yrotation Zrotation
											JOINT mixamorig:RightHandPinky4
											{
												OFFSET -5.218353 0.000000 0.000000
												CHANNELS 3 Xrotation Yrotation Zrotation
												End Site
												{
													OFFSET 0.602097 5.118835 0.816273
												}
											}
										}
									}
								}
							}
						}
					}
				}
			}
		}
	}
	JOINT mixamorig:LeftUpLeg
	{
		OFFSET 18.168400 -13.561905 -0.039000
		CHANNELS 3 Xrotation Yrotation Zrotation
		JOINT mixamorig:LeftLeg
		{
			OFFSET 0.577358 -80.825211 -3.695000
			CHANNELS 3 Xrotation Yrotation Zrotation
			JOINT mixamorig:LeftFoot
			{
				OFFSET -0.577356 -83.370262 -6.520700
				CHANNELS 3 Xrotation Yrotation Zrotation
				JOINT mixamorig:LeftToeBase
				{
					OFFSET 0.750401 -20.798306 25.135401
					CHANNELS 3 Xrotation Yrotation Zrotation
					JOINT mixamorig:LeftToe_End
					{
						OFFSET -0.000500 0.001200 19.917799
						CHANNELS 3 Xrotation Yrotation Zrotation
						End Site
						{
							OFFSET 0.000000 19.917805 0.000000
						}
					}
				}
			}
		}
	}
	JOINT mixamorig:RightUpLeg
	{
		OFFSET -18.162500 -13.585098 -0.041000
		CHANNELS 3 Xrotation Yrotation Zrotation
		JOINT mixamorig:RightLeg
		{
			OFFSET -0.595024 -80.945297 -3.631900
			CHANNELS 3 Xrotation Yrotation Zrotation
			JOINT mixamorig:RightFoot
			{
				OFFSET 0.595024 -83.218193 -6.561200
				CHANNELS 3 Xrotation Yrotation Zrotation
				JOINT mixamorig:RightToeBase
				{
					OFFSET -0.753601 -20.807106 25.115000
					CHANNELS 3 Xrotation Yrotation Zrotation
					JOINT mixamorig:RightToe_End
					{
						OFFSET 0.000299 0.001700 19.918200
						CHANNELS 3 Xrotation Yrotation Zrotation
						End Site
						{
							OFFSET 0.000000 19.918203 0.000000
						}
					}
				}
			}
		}
	}
}
MOTION
Frames: 4
Frame Time: 0.033333
6.111263 198.013245 1.775139 -0.892555 1.586632 -4.976449 1.577416 0.806475 2.584117 0.783859 2.538966 5.542669 0.583957 3.046705 5.417583 2.456931 -4.439978 -2.522680 2.414639 -9.229274 -5.905795 0.000000 0.000000 0.000000 0.000000 0.000000 0.000000 0.000000 0.000000 0.000000 3.514192 -12.978074 -5.972899 2.760937 2.633278 -82.287319 0.000008 -15.465894 0.000043 -28.048129 2.615106 -10.091130 0.922823 8.783556 -16.020840 0.917079 3.987979 -33.363084 0.169681 1.485266 -12.227109 0.000002 0.000000 0.000002 18.433530 -0.840987 10.899541 1.138428 32.902018 -3.093893 2.098705 9.262392 -0.340979 0.000001 -0.000001 -0.000000 0.331062 4.673143 -8.029008 0.386492 2.822148 -20.551095 0.034417 0.815319 -10.154697 0.000001 0.000000 -0.000000 2.552503 11.642062 -27.042350 1.705618 3.881903 -40.145093 0.541876 1.828633 -19.272637 0.000000 -0.000001 0.000002 5.550439 15.953898 -37.070671 1.377748 4.076554 -45.631278 0.485996 2.852081 -20.510389 -0.000001 -0.000000 0.000003 4.208817 3.701328 3.996878 -1.209752 3.091286 68.039524 0.000010 17.643371 -0.000027 -13.094790 -13.266183 7.010070 0.772250 -8.421189 14.238731 0.916497 -3.987070 33.352101 0.215064 -1.683908 15.846905 0.000000 0.000000 -0.000001 19.090835 -1.337134 -10.286749 1.276205 -31.743164 3.078668 2.000903 -8.176370 1.110898 -0.000001 -0.000004 0.000000 0.311101 -4.362292 5.596092 0.392174 -2.837210 20.710745 -0.192560 -0.231410 13.988151 -0.000000 -0.000001 0.000000 2.425927 -11.634329 25.525831 1.715714 -3.891684 40.286146 -0.157291 0.027883 17.887613 -0.000001 -0.000001 0.000000 5.224817 -15.830842 35.600305 1.393343 -4.094524 45.868262 -0.728644 -0.272625 22.344047 0.000000 0.000000 0.000000 -25.071493 12.758482 17.820411 36.041675 4.895536 4.698599 5.246135 11.600218 -14.940766 -13.995395 0.001722 -0.030821 -0.000000 0.000002 0.000000 0.017245 -6.556554 9.702716 7.109322 -6.146152 2.470395 -7.242862 -9.091711 -6.740318 -0.601459 0.000005 0.000001 -0.000000 -0.000000 0.000000 
5.036922 197.929596 1.842116 -0.892702 1.584910 -4.971166 1.565167 0.461539 2.640606 0.785483 2.092739 5.562247 0.622980 2.602113 5.443102 2.162929 -3.592116 -2.515564 2.294982 -6.991160 -6.558809 -0.000000 -0.000000 0.000000 -0.000000 -0.000000 0.000000 -0.000000 -0.000000 0.000000 3.527409 -13.092949 -5.812289 2.800766 2.897107 -82.483960 -0.000003 -15.201955 -0.000016 -27.900469 2.651136 -9.881624 0.921320 8.779546 -16.009393 0.918463 3.990162 -33.388949 0.170292 1.487760 -12.252807 -0.000000 -0.000000 0.000000 18.383159 -0.680204 10.967239 1.239320 32.883785 -3.140758 2.102045 9.271254 -0.344174 0.000000 0.000001 -0.000000 0.329725 4.666337 -8.008127 0.387300 2.824283 -20.573776 0.034734 0.817593 -10.177366 -0.000002 -0.000000 0.000000 2.553181 11.646574 -27.025201 1.708069 3.884290 -40.179411 0.543311 1.831726 -19.307000 -0.000001 0.000000 0.000002 5.554534 15.964676 -37.054794 1.379022 4.078027 -45.650713 0.486795 2.853858 -20.529795 -0.000001 0.000000 0.000002 4.251167 3.747681 4.285326 -1.466598 2.689236 68.131704 -0.000004 18.189504 0.000012 -12.853888 -12.614454 7.553474 0.782837 -8.458580 14.285732 0.917287 -3.988314 33.366908 0.215486 -1.685382 15.862197 0.000001 0.000001 -0.000003 19.084411 -1.345261 -10.263437 1.279716 -31.736641 3.087887 2.000672 -8.163609 1.113013 -0.000002 -0.000001 0.000001 0.311770 -4.368675 5.640064 0.392036 -2.836836 20.706760 -0.192578 -0.230997 13.984198 0.000002 0.000000 -0.000006 2.433241 -11.640415 25.583580 1.716031 -3.891990 40.290562 -0.157244 0.027441 17.891974 0.000000 0.000000 0.000000 5.246936 -15.857505 35.644162 1.394473 -4.095818 45.885399 -0.728703 -0.274552 22.361064 -0.000001 -0.000001 -0.000000 -24.461851 11.270279 16.549535 33.818760 4.750815 4.889095 3.187270 9.641030 -13.273242 -10.718669 0.000101 -0.002817 0.000000 0.000000 0.000000 0.058885 -5.973379 9.912272 7.054775 -6.195960 2.531099 -7.092772 -7.041741 -6.953988 -0.595479 0.000007 0.000002 -0.000000 0.000000 0.000000 
3.879041 197.822998 1.759214 -0.892851 1.583240 -4.962696 1.518909 0.068622 2.659955 0.777803 1.632989 5.634765 0.652903 2.144426 5.522098 1.877166 -2.764224 -2.466341 2.136780 -4.973215 -7.071525 -0.000000 -0.000000 0.000000 -0.000000 -0.000000 0.000000 -0.000000 -0.000000 0.000000 3.538079 -13.242941 -5.642667 3.014565 3.137526 -82.748828 0.000004 -14.988140 0.000015 -27.835721 2.840310 -9.712088 0.918927 8.774175 -15.982327 0.918853 3.990780 -33.396285 0.170474 1.488464 -12.260071 -0.000002 -0.000000 0.000004 18.393959 -0.600268 10.970984 1.267065 32.854890 -3.139709 2.104871 9.278717 -0.346889 0.000001 0.000004 0.000000 0.329408 4.660811 -7.975591 0.387460 2.824714 -20.578247 0.034801 0.818048 -10.181843 -0.000001 0.000000 0.000001 2.553698 11.652338 -26.999080 1.709083 3.885267 -40.193536 0.543907 1.833015 -19.321355 -0.000001 0.000001 0.000001 5.557710 15.974522 -37.037015 1.379154 4.078167 -45.652612 0.486875 2.854034 -20.531678 0.000000 0.000002 0.000000 4.299265 3.721170 4.557980 -1.498728 2.206295 68.083879 0.000004 18.327742 0.000012 -12.445452 -11.805483 8.234009 0.804621 -8.520801 14.495395 0.917787 -3.989104 33.376293 0.215760 -1.686341 15.872181 0.000000 -0.000001 -0.000003 18.959357 -1.098733 -10.362003 1.285091 -31.882667 3.100554 1.996771 -8.190317 1.084229 -0.000003 0.000003 -0.000001 0.316817 -4.411029 5.924674 0.391191 -2.834603 20.683085 -0.192674 -0.228528 13.960544 0.000001 0.000000 -0.000002 2.452046 -11.648933 25.768962 1.715068 -3.891061 40.277124 -0.157372 0.028831 17.878389 -0.000001 0.000000 0.000001 5.297314 -15.890336 35.826214 1.392549 -4.093610 45.856210 -0.728591 -0.271261 22.332046 -0.000002 0.000001 -0.000002 -23.692963 10.323702 15.670074 30.854953 5.630399 4.659574 1.262244 7.226568 -11.615013 -6.978362 0.000042 -0.005840 -0.000000 0.000000 -0.000000 -0.014495 -5.648934 10.078118 7.218917 -6.178244 2.654454 -6.983970 -4.819667 -7.210723 -0.593493 -0.000005 0.000001 -0.000000 -0.000002 -0.000000 
2.686007 197.694763 1.510111 -0.892931 1.581944 -4.953303 1.450042 -0.347789 2.649614 0.763637 1.175223 5.731025 0.675052 1.688654 5.625002 1.597937 -1.944896 -2.381587 1.960226 -3.091124 -7.473414 0.000000 0.000000 -0.000000 0.000000 0.000000 -0.000000 0.000000 0.000000 -0.000000 3.550149 -13.414710 -5.454058 3.333546 3.302835 -83.053570 -0.000001 -14.817955 -0.000016 -27.775442 3.122540 -9.598392 0.917099 8.771718 -15.947701 0.918923 3.990896 -33.397651 0.170503 1.488596 -12.261425 -0.000001 0.000000 -0.000000 18.425444 -0.564818 10.950938 1.267742 32.829024 -3.122886 2.108243 9.287614 -0.350116 0.000001 0.000002 -0.000000 0.331322 4.661905 -7.944832 0.387322 2.824364 -20.574511 0.034750 0.817669 -10.178105 -0.000001 0.000000 -0.000003 2.554610 11.658155 -26.977577 1.709507 3.885677 -40.199498 0.544167 1.833578 -19.327567 -0.000001 -0.000000 0.000001 5.562302 15.986655 -37.018529 1.378839 4.077812 -45.647910 0.486685 2.853604 -20.526993 0.000000 0.000000 0.000000 4.359807 3.616333 4.840629 -1.413721 1.703048 67.896267 0.000010 18.233407 -0.000021 -12.006047 -10.924305 8.905012 0.835404 -8.596493 14.868340 0.918199 -3.989753 33.383977 0.215986 -1.687139 15.880487 0.000000 -0.000001 0.000002 18.790733 -0.644393 -10.534346 1.286959 -32.141149 3.102877 1.996106 -8.255549 1.068578 -0.000002 0.000002 -0.000001 0.322762 -4.484269 6.455772 0.389914 -2.831225 20.647288 -0.192813 -0.224799 13.924861 -0.000000 0.000000 0.000004 2.481764 -11.657454 26.087301 1.713635 -3.889675 40.257149 -0.157561 0.030907 17.858071 0.000000 0.000001 0.000001 5.375322 -15.929702 36.140710 1.388513 -4.088974 45.795025 -0.728356 -0.264376 22.271234 0.000001 0.000001 0.000001 -22.855119 9.925300 15.363115 27.657849 6.861167 4.038024 0.009431 5.113609 -10.269108 -3.827450 -0.000008 -0.000001 0.000000 -0.000002 -0.000000 -0.283939 -5.374565 10.244712 7.644548 -6.084856 2.785506 -6.921594 -2.656850 -7.505915 -0.591902 -0.000007 -0.000001 0.000000 -0.000001 0.000000 
